<svg width="129" height="83" viewBox="0 0 129 83" version="1.1" xmlns="http://www.w3.org/2000/svg" xmlns:xlink="http://www.w3.org/1999/xlink">
<title>&#239;&#131;&#149;</title>
<desc>Created using Figma</desc>
<g id="Canvas" transform="translate(423 -668)">
<g id="&#239;&#131;&#149;">
<use xlink:href="#path0_fill" transform="translate(-423 659)" fill="#FFFFFF"/>
</g>
</g>
<defs>
<path id="path0_fill" d="M 80.1897 51.2344C 80.1897 48.5558 79.9107 46.4911 79.5201 44.4263L 40.904 44.4263L 40.904 58.4888L 64.1183 58.4888C 63.1696 64.4598 57.0871 76.1228 40.904 76.1228C 26.9531 76.1228 15.5692 64.5714 15.5692 50.2857C 15.5692 36 26.9531 24.4487 40.904 24.4487C 48.8839 24.4487 54.1853 27.8527 57.1987 30.7545L 68.3036 20.096C 61.1607 13.3996 51.9531 9.3817 40.904 9.3817C 18.3036 9.3817 0 27.6853 0 50.2857C 0 72.8862 18.3036 91.1897 40.904 91.1897C 64.5089 91.1897 80.1897 74.6161 80.1897 51.2344ZM 128.571 44.4263L 116.908 44.4263L 116.908 32.7634L 105.19 32.7634L 105.19 44.4263L 93.5268 44.4263L 93.5268 56.1451L 105.19 56.1451L 105.19 67.808L 116.908 67.808L 116.908 56.1451L 128.571 56.1451L 128.571 44.4263Z"/>
</defs>
</svg>
