<svg width="86" height="83" viewBox="0 0 86 83" version="1.1" xmlns="http://www.w3.org/2000/svg" xmlns:xlink="http://www.w3.org/1999/xlink">
<title>&#239;&#131;&#161;</title>
<desc>Created using Figma</desc>
<g id="Canvas" transform="translate(425 -567)">
<g id="&#239;&#131;&#161;">
<use xlink:href="#path0_fill" transform="translate(-425 559)" fill="#FFFFFF"/>
</g>
</g>
<defs>
<path id="path0_fill" d="M 19.4754 35.1629L 1.06027 35.1629L 1.06027 90.4643L 19.4754 90.4643L 19.4754 35.1629ZM 20.6473 18.0871C 20.5915 12.6741 16.6853 8.54464 10.3795 8.54464C 4.12946 8.54464 0 12.6741 0 18.0871C 0 23.3884 3.96205 27.6295 10.1562 27.6295L 10.2679 27.6295C 16.6853 27.6295 20.7031 23.3884 20.6473 18.0871ZM 85.7143 58.7679C 85.7143 41.8036 76.6741 33.8795 64.5647 33.8795C 54.6317 33.8795 50.279 39.404 47.8795 43.1987L 47.9911 43.1987L 47.9911 35.1629L 29.6317 35.1629C 29.6317 35.1629 29.8549 40.3527 29.6317 90.4643L 47.9911 90.4643L 47.9911 59.6049C 47.9911 57.9308 48.1585 56.3125 48.6049 55.0848C 49.9442 51.7924 52.9576 48.3884 58.0357 48.3884C 64.6763 48.3884 67.3549 53.4665 67.3549 60.8884L 67.3549 90.4643L 85.7143 90.4643L 85.7143 58.7679Z"/>
</defs>
</svg>
