<?xml version="1.0" encoding="utf-8"?>
<!-- Generator: Adobe Illustrator 19.0.0, SVG Export Plug-In . SVG Version: 6.00 Build 0)  -->
<svg version="1.2" baseProfile="tiny" id="Layer_1" xmlns="http://www.w3.org/2000/svg" xmlns:xlink="http://www.w3.org/1999/xlink"
	 x="0px" y="0px" width="126.1px" height="185px" viewBox="0 0 126.1 185" xml:space="preserve">
<g id="XMLID_176_">
	<g id="XMLID_504_">
		<path id="XMLID_193_" fill="#F2F2F2" d="M115.2,185H10.9C5,185,0,180.1,0,174.1V10.9C0,5,4.9,0,10.9,0h104.3
			c5.9,0,10.9,4.9,10.9,10.9v163.3C126,180.1,121.2,185,115.2,185z"/>
		<g id="XMLID_840_">
			<g id="XMLID_187_">
				<circle id="XMLID_192_" fill="#FFFFFF" cx="63.1" cy="56.8" r="28.4"/>
				<g id="XMLID_188_">
					<circle id="XMLID_191_" fill="#63B9DB" cx="63.1" cy="56.1" r="10.3"/>
					<path id="XMLID_190_" fill="#63B9DB" d="M63.1,85.3c7.2,0,13.7-2.7,18.6-7.1c-1-3.2-5.6-11.1-18.6-11.1
						c-13.1,0-17.7,7.9-18.6,11.1C49.4,82.6,55.9,85.3,63.1,85.3z"/>
				</g>
			</g>
			<g id="XMLID_185_">
				<path id="XMLID_184_" fill="#CECECE" d="M96.8,114.5H29.3c-1.8,0-3.3-1.5-3.3-3.3v-9.3c0-1.8,1.5-3.3,3.3-3.3h67.5
					c1.8,0,3.3,1.5,3.3,3.3v9.3C100.2,113,98.7,114.5,96.8,114.5z"/>
				<path id="XMLID_186_" fill="#CECECE" d="M96.8,137.9H29.3c-1.8,0-3.3-1.5-3.3-3.3v-9.3c0-1.8,1.5-3.3,3.3-3.3h67.5
					c1.8,0,3.3,1.5,3.3,3.3v9.3C100.2,136.4,98.7,137.9,96.8,137.9z"/>
				<path id="XMLID_579_" fill="#63B9DB" d="M96.8,161.2H29.3c-1.8,0-3.3-1.5-3.3-3.3v-9.3c0-1.8,1.5-3.3,3.3-3.3h67.5
					c1.8,0,3.3,1.5,3.3,3.3v9.3C100.2,159.7,98.7,161.2,96.8,161.2z"/>
			</g>
		</g>
	</g>
</g>
</svg>
