<?xml version="1.0" encoding="utf-8"?>
<!-- Generator: Adobe Illustrator 19.0.0, SVG Export Plug-In . SVG Version: 6.00 Build 0)  -->
<svg version="1.2" baseProfile="tiny" id="Layer_1" xmlns="http://www.w3.org/2000/svg" xmlns:xlink="http://www.w3.org/1999/xlink"
	 x="0px" y="0px" width="222.7px" height="185px" viewBox="0 0 222.7 185" xml:space="preserve">
<g id="XMLID_17_">
	<g id="XMLID_1_">
		<g id="XMLID_2_">
			<g id="XMLID_9_">
				<path id="XMLID_16_" d="M62.6,96.5h-3.1c-0.9,0-1.6-0.6-1.6-1.5s0.7-1.5,1.6-1.5h3.1c0.9,0,1.6,0.6,1.6,1.5S63.4,96.5,62.6,96.5
					z"/>
			</g>
			<g id="XMLID_8_">
				<path id="XMLID_14_" d="M73.5,96.5H68c-0.9,0-1.6-0.6-1.6-1.5s0.7-1.5,1.6-1.5h5.4c0.9,0,1.6,0.6,1.6,1.5S74.3,96.5,73.5,96.5z"
					/>
			</g>
			<g id="XMLID_7_">
				<path id="XMLID_13_" d="M82,96.5h-3.1c-0.9,0-1.6-0.6-1.6-1.5s0.7-1.5,1.6-1.5H82c0.9,0,1.6,0.6,1.6,1.5S82.9,96.5,82,96.5z"/>
			</g>
		</g>
		<g id="XMLID_3_">
			<g id="XMLID_6_">
				<path id="XMLID_12_" d="M144.2,96.5h-3.1c-0.9,0-1.6-0.6-1.6-1.5s0.7-1.5,1.6-1.5h3.1c0.9,0,1.6,0.6,1.6,1.5
					S145.1,96.5,144.2,96.5z"/>
			</g>
			<g id="XMLID_5_">
				<path id="XMLID_11_" d="M155.1,96.5h-5.4c-0.9,0-1.6-0.6-1.6-1.5s0.7-1.5,1.6-1.5h5.4c0.9,0,1.6,0.6,1.6,1.5
					S155.9,96.5,155.1,96.5z"/>
			</g>
			<g id="XMLID_4_">
				<path id="XMLID_10_" d="M163.6,96.5h-3.1c-0.9,0-1.6-0.6-1.6-1.5s0.7-1.5,1.6-1.5h3.1c0.9,0,1.6,0.6,1.6,1.5
					S164.5,96.5,163.6,96.5z"/>
			</g>
		</g>
	</g>
	<g id="XMLID_603_">
		<circle id="XMLID_2301_" fill="#F0C14B" cx="29.1" cy="92.5" r="29.1"/>
		<g id="XMLID_604_">
			<path id="XMLID_1667_" fill="#FFFFFF" d="M28,102V86.4l-2.5,1.5c-0.3,0.2-0.6,0.4-0.9,0.5c-0.3,0.1-0.6,0.2-1,0.2
				c-0.5,0-1-0.1-1.4-0.4c-0.4-0.3-0.7-0.8-0.7-1.4c0-0.4,0.1-0.8,0.3-1.1s0.4-0.5,0.7-0.7l6.4-3.7c0.4-0.2,0.8-0.4,1.3-0.4
				c0.7,0,1.3,0.2,1.7,0.6c0.4,0.4,0.7,0.9,0.7,1.5v19c0,0.6-0.2,1-0.7,1.4c-0.4,0.4-1,0.6-1.6,0.6c-0.6,0-1.2-0.2-1.6-0.6
				C28.2,103,28,102.6,28,102z"/>
		</g>
	</g>
	<g id="XMLID_606_">
		<circle id="XMLID_608_" fill="#E38511" cx="111.9" cy="92.5" r="29.1"/>
		<g id="XMLID_2276_">
			<path id="XMLID_2289_" fill="#FFFFFF" d="M118.9,101.3c0,0.6-0.2,1-0.6,1.4c-0.4,0.4-1,0.6-1.6,0.6h-10.6c-0.7,0-1.2-0.2-1.7-0.6
				c-0.4-0.4-0.6-0.9-0.6-1.5c0-0.2,0-0.5,0-0.8c0-0.3,0.1-0.5,0.2-0.8c0.6-1.4,1.5-2.7,2.6-3.8c1.1-1.1,2.2-2.2,3.3-3.2
				c0.5-0.4,0.9-0.8,1.4-1.3c0.5-0.4,1-0.9,1.4-1.4c0.4-0.5,0.8-1,1.1-1.5c0.3-0.5,0.4-1.1,0.4-1.7c0-0.8-0.3-1.5-0.8-2.1
				c-0.5-0.6-1.3-0.9-2.3-0.9c-0.6,0-1.1,0-1.5,0.1c-0.4,0.1-0.8,0.2-1.2,0.4c-0.4,0.2-0.7,0.3-1.1,0.5c-0.3,0.2-0.7,0.3-1.2,0.3
				c-0.6,0-1.1-0.2-1.5-0.5c-0.4-0.4-0.7-0.8-0.7-1.4c0-0.6,0.3-1.1,0.8-1.5c0.5-0.4,1.1-0.8,1.9-1c0.7-0.3,1.5-0.5,2.4-0.6
				c0.8-0.1,1.6-0.2,2.2-0.2c1.2,0,2.2,0.2,3.2,0.5c0.9,0.3,1.7,0.8,2.3,1.4c0.6,0.6,1.1,1.3,1.4,2.1c0.3,0.8,0.5,1.6,0.5,2.5
				c0,1.4-0.2,2.5-0.7,3.5c-0.5,1-1.1,1.8-1.8,2.6c-0.5,0.6-1.1,1.1-1.7,1.6c-0.6,0.5-1.2,1.1-1.8,1.6c-0.6,0.5-1.2,1.1-1.7,1.6
				c-0.6,0.5-1.1,1.1-1.5,1.7h7.2c0.6,0,1.1,0.2,1.6,0.6C118.7,100.3,118.9,100.8,118.9,101.3z"/>
		</g>
	</g>
	<g id="XMLID_920_">
		<circle id="XMLID_928_" fill="#D65D0B" cx="193.6" cy="92.5" r="29.1"/>
		<g id="XMLID_607_">
			<path id="XMLID_2302_" fill="#FFFFFF" d="M200.3,86.6l-4.4,5.2c1.7,0.3,3,1,4.1,2.1s1.5,2.6,1.5,4.3c0,0.9-0.2,1.7-0.5,2.7
				c-0.3,0.9-0.8,1.7-1.4,2.5s-1.5,1.4-2.5,1.8c-1,0.5-2.2,0.7-3.6,0.7c-0.4,0-1,0-1.7-0.1c-0.7-0.1-1.5-0.2-2.2-0.4
				c-0.7-0.2-1.4-0.5-1.9-0.9c-0.5-0.4-0.8-0.9-0.8-1.6c0-0.5,0.2-1,0.6-1.4c0.4-0.4,0.9-0.6,1.5-0.6c0.3,0,0.7,0.1,1,0.2
				c0.3,0.1,0.6,0.3,0.9,0.4c0.3,0.1,0.7,0.3,1.1,0.4c0.4,0.1,0.9,0.2,1.4,0.2c0.7,0,1.3-0.1,1.8-0.3c0.5-0.2,0.9-0.5,1.1-0.9
				c0.3-0.4,0.5-0.7,0.6-1.2c0.1-0.4,0.2-0.8,0.2-1.3c0-1.1-0.3-1.8-1-2.3c-0.7-0.4-1.5-0.7-2.7-0.7c-0.2,0-0.4,0-0.5,0
				c-0.1,0-0.2,0.1-0.3,0.1c-0.1,0.1-0.2,0.1-0.3,0.1c-0.1,0-0.3,0-0.5,0c-0.6,0-1.1-0.2-1.5-0.6c-0.4-0.4-0.6-0.9-0.6-1.5
				c0-0.3,0.1-0.6,0.2-0.8l4.8-5.8h-5.2c-0.6,0-1.1-0.2-1.6-0.6c-0.4-0.4-0.6-0.9-0.6-1.4c0-0.6,0.2-1.1,0.6-1.5
				c0.4-0.4,1-0.6,1.6-0.6h9c0.7,0,1.2,0.2,1.7,0.6c0.4,0.4,0.7,0.9,0.7,1.6C200.8,85.7,200.6,86.2,200.3,86.6z"/>
		</g>
	</g>
</g>
</svg>
