<svg width="74" height="94" viewBox="0 0 74 94" version="1.1" xmlns="http://www.w3.org/2000/svg" xmlns:xlink="http://www.w3.org/1999/xlink">
<title>&#239;&#134;&#158;</title>
<desc>Created using Figma</desc>
<g id="Canvas" transform="translate(288 -473)">
<g id="&#239;&#134;&#158;">
<use xlink:href="#path0_fill" transform="translate(-294 473)" fill="#FFFFFF"/>
</g>
</g>
<defs>
<path id="path0_fill" d="M 47.9353 53.6897C 54.4643 42.3058 60.9933 30.9777 67.6339 19.6496C 71.4844 13.1205 75.1674 6.42411 79.6317 0.285714C 77.567 0.787946 75.3906 1.06696 73.2701 1.06696C 71.2612 1.06696 69.2522 0.787946 67.2991 0.285714C 59.8214 14.2366 51.0603 27.6853 42.8013 41.1897C 34.5982 27.5737 26.1161 14.125 18.3036 0.285714C 16.2946 0.732143 14.1741 1.12277 12.1094 1.12277C 10.0446 1.12277 8.03571 0.787946 6.08259 0.285714C 17.5223 17.529 27.2879 35.7768 37.6674 53.6897L 36.942 93.1429C 38.8951 92.808 40.8482 92.529 42.8013 92.529C 44.8103 92.529 46.7634 92.808 48.6607 93.1429L 47.9353 53.6897Z"/>
</defs>
</svg>
