<svg width="98" height="101" viewBox="0 0 98 101" version="1.1" xmlns="http://www.w3.org/2000/svg" xmlns:xlink="http://www.w3.org/1999/xlink">
<title>&#239;&#137;&#176;</title>
<desc>Created using Figma</desc>
<g id="Canvas" transform="translate(169 -659)">
<g id="&#239;&#137;&#176;">
<use xlink:href="#path0_fill" transform="translate(-170 659)" fill="#FFFFFF"/>
</g>
</g>
<defs>
<path id="path0_fill" d="M 86.5513 82.6518C 45.3125 102.183 19.7545 85.8326 3.40402 75.8996C 2.39955 75.2299 0.669643 76.0112 2.17634 77.7411C 7.64509 84.3259 25.5022 100.286 48.8281 100.286C 72.154 100.286 86.0491 87.5625 87.779 85.3304C 89.5089 83.0982 88.2254 81.8147 86.5513 82.6518ZM 98.1027 76.2344C 96.9866 74.7835 91.3504 74.5603 87.8348 74.9509C 84.3192 75.3973 78.9621 77.5737 79.4643 78.8571C 79.6875 79.3594 80.1897 79.1362 82.5893 78.9129C 85.0446 78.6897 91.8527 77.7969 93.3036 79.6384C 94.7545 81.5357 91.1272 90.4643 90.4576 91.9152C 89.7879 93.3661 90.6808 93.7567 91.9085 92.7522C 93.0804 91.8036 95.2009 89.3482 96.6518 85.8326C 98.1027 82.2612 98.9397 77.3504 98.1027 76.2344ZM 76.1161 51.5134L 76.1161 18.6451C 76.1161 13.0089 70.6473 0.285714 51.0603 0.285714C 31.4174 0.285714 20.9821 12.5625 20.9821 23.5558L 37.3884 25.0625C 41.0156 14.0134 49.4978 14.0134 49.4978 14.0134C 57.9799 14.0134 57.4219 20.8772 57.4219 22.3839L 57.4219 29.471C 46.5402 29.8616 19.5871 32.9308 19.5871 55.6987C 19.5871 80.1406 50.4464 81.1451 60.5469 65.3527C 60.9375 65.9665 61.3839 66.6362 61.942 67.1942C 61.942 67.1942 65.6808 71.1004 70.6473 75.7879L 83.3147 63.2879C 83.3147 63.2879 76.1161 57.6518 76.1161 51.5134ZM 38.6161 52.6853C 38.6161 42.1384 49.8884 40.0179 57.4219 39.7946L 57.4219 48.8348C 57.4219 66.692 38.6161 64.0134 38.6161 52.6853Z"/>
</defs>
</svg>
