<svg width="86" height="87" viewBox="0 0 86 87" version="1.1" xmlns="http://www.w3.org/2000/svg" xmlns:xlink="http://www.w3.org/1999/xlink">
<title>&#239;&#133;&#189;</title>
<desc>Created using Figma</desc>
<g id="Canvas" transform="translate(535 -566)">
<g id="&#239;&#133;&#189;">
<use xlink:href="#path0_fill" transform="translate(-535 559)" fill="#FFFFFF"/>
</g>
</g>
<defs>
<path id="path0_fill" d="M 57.1429 83.9911C 52.7344 85.8326 47.9353 86.8929 42.8571 86.8929C 33.9844 86.8929 25.8929 83.7121 19.5312 78.5223C 19.5312 78.5223 20.0335 78.8571 20.3683 79.1362C 27.3996 63.846 49.1071 56.2567 49.1071 56.2567C 49.1629 56.2567 49.2746 56.2009 49.3304 56.2009C 54.4643 69.5938 56.5848 80.7545 57.1429 83.9911ZM 46.8192 50.1183C 46.3728 50.2857 45.8705 50.3973 45.3683 50.5647C 45.3683 50.5647 25.6138 56.9263 15.625 74.7277C 9.82143 68.2545 6.25 59.6607 6.25 50.2857C 6.25 49.8951 6.25 49.5045 6.3058 49.1138C 6.91964 49.1138 25 49.5603 43.8616 43.9241C 44.9219 45.9888 45.9263 48.0536 46.8192 50.1183ZM 40.8482 38.2879C 23.2701 42.9196 7.97991 42.7522 7.03125 42.7522C 9.4308 31.4241 17.0201 21.9933 27.2321 17.1942C 27.7344 17.8638 34.4866 27.0156 40.8482 38.2879ZM 79.0179 56.0893C 77.3438 66.3013 71.5402 75.1183 63.3371 80.6429C 62.9464 78.4665 60.9933 67.6964 56.1942 54.471C 68.0246 52.6295 78.2366 55.8661 79.0179 56.0893ZM 34.096 14.7388C 34.0402 14.7388 33.9844 14.7946 33.9844 14.7946C 34.0402 14.7388 34.0402 14.7388 34.096 14.7388ZM 67.0201 22.8304C 66.9085 22.9978 61.7188 30.9219 47.9353 36.0558C 41.6853 24.5603 34.7656 15.4643 34.2076 14.7388C 36.9978 14.0692 39.8996 13.6786 42.8571 13.6786C 52.1205 13.6786 60.6027 17.1384 67.0201 22.8304ZM 79.4643 49.8951C 79.0179 49.8393 66.5737 47.1049 53.9621 48.7232C 53.683 48.1094 53.4598 47.4397 53.1808 46.8259C 52.3996 45.0402 51.5625 43.2545 50.7254 41.5246C 65.1786 35.6094 71.0379 27.1272 71.1496 27.0156C 76.2835 33.2656 79.3527 41.2455 79.4643 49.8951ZM 85.7143 50.2857C 85.7143 26.625 66.5179 7.42857 42.8571 7.42857C 19.1964 7.42857 0 26.625 0 50.2857C 0 73.9464 19.1964 93.1429 42.8571 93.1429C 66.5179 93.1429 85.7143 73.9464 85.7143 50.2857Z"/>
</defs>
</svg>
