<svg width="67" height="94" viewBox="0 0 67 94" version="1.1" xmlns="http://www.w3.org/2000/svg" xmlns:xlink="http://www.w3.org/1999/xlink">
<title>&#239;&#134;&#128;</title>
<desc>Created using Figma</desc>
<g id="Canvas" transform="translate(88 -445)">
<g id="&#239;&#134;&#128;">
<use xlink:href="#path0_fill" transform="translate(-90 445)" fill="#FFFFFF"/>
</g>
</g>
<defs>
<path id="path0_fill" d="M 55.8036 24.5045C 55.5804 25.6763 54.0737 26.904 52.7344 26.904C 52.7344 26.904 51.3393 26.904 33.4263 26.904C 31.25 26.904 29.6875 28.4107 29.6875 30.5871L 29.6875 32.9308C 29.6875 35.1071 31.25 36.6696 33.4263 36.6696C 48.2701 36.6696 49.8326 36.6696 49.8326 36.6696C 51.3393 36.6696 52.846 38.3438 52.5112 39.9621C 52.1763 41.5804 50.6138 49.7277 50.4464 50.6205C 50.279 51.5134 49.2188 53.0759 47.3772 53.0759C 47.3772 53.0759 45.8705 53.0759 34.0402 53.0759C 31.5848 53.0759 30.9152 53.4107 29.2411 55.3638C 29.2411 55.3638 27.6228 57.4286 13.0022 75.0067C 12.8348 75.1741 12.6674 75.1183 12.6674 74.9509L 12.6674 13.5112C 12.6674 12.1161 13.8951 10.4978 15.6808 10.4978C 53.9062 10.4978 55.4129 10.4978 55.4129 10.4978C 56.9196 10.4978 58.2589 11.8929 57.8683 13.6786L 55.8036 24.5045ZM 68.471 12.1161C 70.0335 4.41518 68.0804 0.285714 60.8259 0.285714C 18.1362 0.285714 11.2723 0.285714 11.2723 0.285714C 4.46429 0.285714 2.45536 5.41964 2.45536 8.65625C 2.45536 8.65625 2.45536 11.8929 2.45536 87.3393C 2.45536 91.0223 4.40848 92.3616 5.52455 92.808C 6.64062 93.2545 9.65402 93.6451 11.4955 91.5246C 34.8772 64.404 35.2679 63.9576 35.2679 63.9576C 35.8259 63.3438 35.8817 63.3996 36.4955 63.3996C 37.6674 63.3996 46.7076 63.3996 51.6183 63.3996C 57.9799 63.3996 58.9844 58.8237 59.654 56.2009C 60.2121 53.9129 66.4062 22.1607 68.471 12.1161ZM 68.471 12.1161C 66.4062 22.1607 60.2121 53.9129 59.654 56.2009L 68.471 12.1161Z"/>
</defs>
</svg>
