<svg width="86" height="85" viewBox="0 0 86 85" version="1.1" xmlns="http://www.w3.org/2000/svg" xmlns:xlink="http://www.w3.org/1999/xlink">
<title>&#239;&#130;&#155;</title>
<desc>Created using Figma</desc>
<g id="Canvas" transform="translate(535 -666)">
<g id="&#239;&#130;&#155;">
<use xlink:href="#path0_fill" transform="translate(-535 659)" fill="#FFFFFF"/>
</g>
</g>
<defs>
<path id="path0_fill" d="M 42.8571 7.42857C 19.1964 7.42857 0 26.625 0 50.2857C 0 69.2031 12.2768 85.2746 29.2969 90.9665C 31.4732 91.3571 32.2545 90.0179 32.2545 88.9018C 32.2545 87.8415 32.1987 84.4933 32.1987 80.9219C 32.1987 80.9219 20.2567 83.4888 17.7455 75.8438C 17.7455 75.8438 15.7924 70.8772 13.0022 69.5938C 13.0022 69.5938 9.09598 66.9152 13.2812 66.971C 13.2812 66.971 17.5223 67.3058 19.8661 71.3795C 23.6049 77.9643 29.8549 76.067 32.3103 74.9509C 32.7009 72.2165 33.817 70.3192 35.0446 69.2031C 25.5022 68.1429 15.5134 64.4598 15.5134 48.0536C 15.5134 43.3661 17.1875 39.5714 19.9219 36.558C 19.4754 35.442 18.0246 31.0893 20.3683 25.1741C 23.9397 24.058 32.1429 29.5826 32.1429 29.5826C 35.5469 28.6339 39.2299 28.1317 42.8571 28.1317C 46.4844 28.1317 50.1674 28.6339 53.5714 29.5826C 53.5714 29.5826 61.7746 24.058 65.346 25.1741C 67.6897 31.0893 66.2388 35.442 65.7924 36.558C 68.5268 39.5714 70.2009 43.3661 70.2009 48.0536C 70.2009 64.5156 60.1562 68.1429 50.6138 69.2031C 52.1763 70.5424 53.5156 73.1094 53.5156 77.1272C 53.5156 82.875 53.4598 87.5067 53.4598 88.9018C 53.4598 90.0179 54.2411 91.3571 56.4174 90.9665C 73.4375 85.2746 85.7143 69.2031 85.7143 50.2857C 85.7143 26.625 66.5179 7.42857 42.8571 7.42857ZM 16.2388 68.9799C 16.1272 69.2031 15.7924 69.2589 15.5134 69.0915C 15.1786 68.9241 15.0112 68.6451 15.1228 68.4219C 15.2344 68.2545 15.5134 68.1987 15.8482 68.3103C 16.183 68.4777 16.3504 68.7567 16.2388 68.9799ZM 17.9688 70.8772C 17.7455 71.1004 17.3549 70.9888 17.0759 70.7098C 16.7969 70.375 16.7411 69.9844 16.9643 69.817C 17.1875 69.5938 17.5781 69.7054 17.8571 69.9844C 18.1362 70.3192 18.192 70.7098 17.9688 70.8772ZM 19.6429 73.3884C 19.4196 73.5558 18.9732 73.3884 18.6942 72.9978C 18.4152 72.6071 18.4152 72.1607 18.6942 71.9933C 18.9732 71.7701 19.4196 71.9375 19.6429 72.3281C 19.9219 72.7188 19.9219 73.1652 19.6429 73.3884ZM 21.9866 75.7321C 21.7634 76.0112 21.2612 75.9554 20.8705 75.5647C 20.4799 75.2299 20.3683 74.7277 20.6473 74.5045C 20.8705 74.2254 21.3728 74.2812 21.7634 74.6719C 22.0982 75.0067 22.2098 75.5089 21.9866 75.7321ZM 25.1674 77.1272C 25.0558 77.4621 24.5536 77.6295 24.1071 77.4621C 23.6049 77.3504 23.2701 76.9598 23.3817 76.625C 23.4933 76.2902 23.9955 76.1228 24.442 76.2344C 24.9442 76.4018 25.279 76.7924 25.1674 77.1272ZM 28.683 77.4062C 28.683 77.7411 28.2924 78.0201 27.7902 78.0201C 27.2321 78.0759 26.8415 77.7969 26.8415 77.4062C 26.8415 77.0714 27.2321 76.7924 27.7344 76.7924C 28.2366 76.7366 28.683 77.0156 28.683 77.4062ZM 31.9196 76.8482C 31.9754 77.183 31.6406 77.5179 31.1384 77.6295C 30.6362 77.7411 30.1897 77.5179 30.1339 77.183C 30.0781 76.7924 30.4129 76.4576 30.9152 76.346C 31.4174 76.2902 31.8638 76.5134 31.9196 76.8482Z"/>
</defs>
</svg>
