<svg width="87" height="87" viewBox="0 0 87 87" version="1.1" xmlns="http://www.w3.org/2000/svg" xmlns:xlink="http://www.w3.org/1999/xlink">
<title>&#239;&#133;&#173;</title>
<desc>Created using Figma</desc>
<g id="Canvas" transform="translate(276 -666)">
<g id="&#239;&#133;&#173;">
<use xlink:href="#path0_fill" transform="translate(-275 659)" fill="#FFFFFF"/>
</g>
</g>
<defs>
<path id="path0_fill" d="M 57.1429 50.2857C 57.1429 58.154 50.7254 64.5714 42.8571 64.5714C 34.9888 64.5714 28.5714 58.154 28.5714 50.2857C 28.5714 42.4174 34.9888 36 42.8571 36C 50.7254 36 57.1429 42.4174 57.1429 50.2857ZM 64.8438 50.2857C 64.8438 38.1205 55.0223 28.2991 42.8571 28.2991C 30.692 28.2991 20.8705 38.1205 20.8705 50.2857C 20.8705 62.4509 30.692 72.2723 42.8571 72.2723C 55.0223 72.2723 64.8438 62.4509 64.8438 50.2857ZM 70.8705 27.4062C 70.8705 24.5603 68.5826 22.2723 65.7366 22.2723C 62.8906 22.2723 60.6027 24.5603 60.6027 27.4062C 60.6027 30.2522 62.8906 32.5402 65.7366 32.5402C 68.5826 32.5402 70.8705 30.2522 70.8705 27.4062ZM 42.8571 15.1295C 49.1071 15.1295 62.5 14.6272 68.1362 16.8594C 70.0893 17.6406 71.5402 18.5893 73.0469 20.096C 74.5536 21.6027 75.5022 23.0536 76.2835 25.0067C 78.5156 30.6429 78.0134 44.0357 78.0134 50.2857C 78.0134 56.5357 78.5156 69.9286 76.2835 75.5647C 75.5022 77.5179 74.5536 78.9688 73.0469 80.4754C 71.5402 81.9821 70.0893 82.9308 68.1362 83.7121C 62.5 85.9442 49.1071 85.442 42.8571 85.442C 36.6071 85.442 23.2143 85.9442 17.5781 83.7121C 15.625 82.9308 14.1741 81.9821 12.6674 80.4754C 11.1607 78.9688 10.2121 77.5179 9.4308 75.5647C 7.19866 69.9286 7.70089 56.5357 7.70089 50.2857C 7.70089 44.0357 7.19866 30.6429 9.4308 25.0067C 10.2121 23.0536 11.1607 21.6027 12.6674 20.096C 14.1741 18.5893 15.625 17.6406 17.5781 16.8594C 23.2143 14.6272 36.6071 15.1295 42.8571 15.1295ZM 85.7143 50.2857C 85.7143 44.3705 85.7701 38.5112 85.4353 32.596C 85.1004 25.7321 83.5379 19.6496 78.5156 14.6272C 73.4933 9.60491 67.4107 8.04241 60.5469 7.70759C 54.6317 7.37277 48.7723 7.42857 42.8571 7.42857C 36.942 7.42857 31.0826 7.37277 25.1674 7.70759C 18.3036 8.04241 12.221 9.60491 7.19866 14.6272C 2.17634 19.6496 0.613839 25.7321 0.279018 32.596C -0.0558036 38.5112 0 44.3705 0 50.2857C 0 56.2009 -0.0558036 62.0603 0.279018 67.9754C 0.613839 74.8393 2.17634 80.9219 7.19866 85.9442C 12.221 90.9665 18.3036 92.529 25.1674 92.8638C 31.0826 93.1987 36.942 93.1429 42.8571 93.1429C 48.7723 93.1429 54.6317 93.1987 60.5469 92.8638C 67.4107 92.529 73.4933 90.9665 78.5156 85.9442C 83.5379 80.9219 85.1004 74.8393 85.4353 67.9754C 85.7701 62.0603 85.7143 56.2009 85.7143 50.2857Z"/>
</defs>
</svg>
