<svg width="100" height="63" viewBox="0 0 100 63" version="1.1" xmlns="http://www.w3.org/2000/svg" xmlns:xlink="http://www.w3.org/1999/xlink">
<title>&#239;&#136;&#130;</title>
<desc>Created using Figma</desc>
<g id="Canvas" transform="translate(542 -810)">
<g id="&#239;&#136;&#130;">
<use xlink:href="#path0_fill" transform="translate(-542 787)" fill="#FFFFFF"/>
</g>
</g>
<defs>
<path id="path0_fill" d="M 72.0982 39.5714C 72.0982 35.8326 75.1116 33.0982 78.7388 33.0982C 80.4129 33.0982 82.8125 33.0424 84.1518 34.2701L 84.1518 34.3259C 85.5469 35.3862 86.3281 36.6696 87.1652 38.2321L 94.3638 32.7076C 93.192 31.0893 92.0759 29.192 90.5692 27.7969L 90.625 27.7969C 86.7188 24.3371 83.7612 24.1696 78.8504 24.0022C 70.6473 23.7232 62.8906 30.8103 62.8906 39.0692C 62.8906 39.683 62.9464 40.2969 63.058 40.9107C 66.5179 62.7299 90.904 53.6897 90.904 66.971C 90.904 73.1094 85.7701 76.8482 79.9665 76.8482C 73.6049 76.8482 69.4196 70.8214 66.9643 65.6875C 57.9241 47.1049 56.5848 24.0022 29.9107 24.0022C 13.8393 24.0022 0 38.7902 0 54.6942C 0 71.1004 12.6116 86 29.4643 86C 37.779 86 45.4799 84.0469 51.1161 77.5179L 51.0603 77.4621C 52.0089 76.2902 52.9018 74.9509 53.5156 73.5558L 48.8281 65.0737C 47.6004 67.4732 45.9263 69.5938 44.1964 71.5469C 40.625 75.7321 35.1004 76.8482 29.7991 76.8482C 17.8013 76.8482 9.15179 66.1339 9.15179 54.5826C 9.15179 43.7009 18.8616 33.0982 29.9107 33.0982C 42.3549 33.0982 46.875 39.5714 51.1719 50.6205C 56.3616 64.0134 61.942 86 79.9107 86C 90.7366 86 100 78.1875 100 67.0826C 100 56.1451 91.183 51.1786 81.8638 48.5558C 77.6786 47.3839 74.1629 46.4353 72.6562 41.8594C 72.5446 41.4688 72.0982 39.9062 72.0982 39.5714Z"/>
</defs>
</svg>
