<svg width="86" height="101" viewBox="0 0 86 101" version="1.1" xmlns="http://www.w3.org/2000/svg" xmlns:xlink="http://www.w3.org/1999/xlink">
<title>&#239;&#135;&#173;</title>
<desc>Created using Figma</desc>
<g id="Canvas" transform="translate(312 -559)">
<g id="&#239;&#135;&#173;">
<use xlink:href="#path0_fill" transform="translate(-312 559)" fill="#FFFFFF"/>
</g>
</g>
<defs>
<path id="path0_fill" d="M 84.7656 36.3348C 84.096 32.6518 82.3661 29.5826 79.2969 27.2946C 78.9062 27.0156 78.7388 26.904 78.6272 27.5737C 78.1808 30.0848 77.5112 32.5402 76.6741 34.9955C 74.8326 40.2411 72.0982 44.9286 68.0246 48.7232C 63.5045 52.9643 58.0357 55.4196 52.0089 56.7589C 47.4888 57.7634 42.8571 57.9866 38.8393 57.9308C 35.9933 57.875 33.7612 57.9308 31.529 57.9308C 30.1897 57.9308 29.2969 58.6562 29.1295 59.9955C 28.125 66.2455 27.1205 72.4397 26.1161 78.6897C 25.1116 84.9397 24.1629 91.1897 23.1585 97.4397C 22.9353 99.0022 23.9397 100.286 25.5022 100.286L 39.5089 100.286C 41.4062 100.286 42.9688 98.8906 43.3594 96.9933L 43.471 96.1562L 46.5402 76.8482L 46.7634 75.7879C 47.0982 73.8906 48.6607 72.4955 50.558 72.4955L 53.0134 72.4955C 68.6942 72.4955 80.9152 66.1339 84.5424 47.7188C 85.3237 43.5335 85.4911 39.683 84.7656 36.3348ZM 75.1674 20.5982C 75.1674 12.1161 70.8147 5.86607 62.8906 2.79688C 59.1518 1.34598 53.6272 0.285714 51.2277 0.285714L 17.8571 0.285714C 15.6808 0.285714 13.7835 1.90402 13.4487 4.02455L 0.502232 86.1116C 0.279018 87.7299 1.5067 89.1808 3.1808 89.1808L 19.6429 89.1808C 20.0893 89.1808 20.2567 89.0134 20.3125 88.6228C 21.2054 83.0424 24.2746 63.2879 25.0558 59.0469C 25.7254 55.4754 28.0134 53.6897 31.6406 53.6897C 34.9888 53.6897 38.3371 53.7455 41.6853 53.6897C 46.4844 53.6339 51.2277 52.9643 55.7478 51.346C 64.2299 48.221 69.6987 42.1942 72.6004 33.7679C 74.1071 29.5268 75.1674 25.1741 75.1674 20.5982Z"/>
</defs>
</svg>
