<svg width="79" height="101" viewBox="0 0 79 101" version="1.1" xmlns="http://www.w3.org/2000/svg" xmlns:xlink="http://www.w3.org/1999/xlink">
<title>&#239;&#137;&#174;</title>
<desc>Created using Figma</desc>
<g id="Canvas" transform="translate(212 -559)">
<g id="&#239;&#137;&#174;">
<use xlink:href="#path0_fill" transform="translate(-212 559)" fill="#FFFFFF"/>
</g>
</g>
<defs>
<path id="path0_fill" d="M 78.1808 86.6138C 78.6272 86.1116 79.0179 85.2188 77.2321 83.3772C 76.5067 82.7076 75.8929 82.2612 75.3906 82.1496C 74.8326 81.9821 74.3862 82.0938 73.9955 82.4844L 73.6607 82.8192C 70.0335 86.4464 65.7924 89.2924 61.1049 91.3013C 56.1942 93.3661 51.0045 94.4263 45.7031 94.4263C 40.346 94.4263 35.1562 93.3661 30.3013 91.3013C 25.558 89.2924 21.317 86.4464 17.6897 82.8192C 13.8951 79.0246 11.0491 74.7835 9.20759 70.2076C 7.42188 65.7991 6.86384 62.4509 6.64062 61.3348C 6.64062 61.2232 6.64062 61.1674 6.58482 61.1116C 6.36161 59.8281 5.18973 59.7165 3.45982 59.9955C 2.73438 60.1071 0.558036 60.442 0.78125 62.0045C 1.28348 65.6317 2.39955 69.1473 3.79464 72.5513C 6.08259 77.9643 9.375 82.8192 13.5603 86.9487C 17.6897 91.1339 22.6004 94.4263 28.0134 96.7143C 33.5938 99.058 39.5647 100.286 45.7031 100.286C 51.8415 100.286 57.7567 99.058 63.3929 96.7143C 68.8058 94.4263 73.6607 91.1339 77.846 86.9487C 77.846 86.9487 78.0692 86.7254 78.1808 86.6138ZM 51.8415 52.2946C 52.6228 51.4576 51.8973 50.5089 51.2277 49.8393C 50.1674 48.779 49.1629 48.5 48.5491 49.1138L 44.9219 52.7411L 41.2946 49.058C 41.0714 48.8906 40.8482 48.779 40.5692 48.779C 40.067 48.779 39.5089 49.1138 38.8393 49.7835C 37.7232 50.8996 37.4442 51.6808 38.058 52.2946L 41.7411 55.9777L 38.058 59.6049C 37.779 59.9397 37.6116 60.2188 37.6116 60.5536C 37.6116 61.2232 38.2254 61.8371 38.6161 62.1719L 38.7277 62.2835C 39.3415 62.8973 39.9554 63.1763 40.4576 63.1763C 40.904 63.1763 41.183 63.0089 41.2946 62.8973C 41.5737 62.6183 44.6987 59.4933 44.9777 59.2143L 48.4375 62.6183C 48.7723 63.0089 49.1071 63.1763 49.4978 63.1763C 50.0558 63.1763 50.6696 62.8415 51.2835 62.2277C 52.7902 60.721 52.0647 59.8839 51.6741 59.4933L 48.1585 55.9777L 51.8415 52.2946ZM 78.125 55.4754C 78.125 51.0112 77.2321 46.7701 75.558 42.6964C 73.8839 38.7902 71.5402 35.3304 68.5268 32.317C 65.5134 29.3036 61.9978 26.9598 58.0915 25.2857C 54.0737 23.5558 49.7768 22.7188 45.3683 22.7188C 40.904 22.7188 36.4397 23.6116 32.4777 25.2857C 29.2969 26.625 23.8839 30.0848 20.7589 33.3772L 20.7031 33.3772L 20.7031 6.42411L 65.9598 6.42411C 67.6339 6.42411 67.6339 4.13616 67.6339 3.35491C 67.6339 2.62946 67.6339 0.285714 65.9598 0.285714L 17.0201 0.285714C 15.6808 0.285714 14.8996 1.40179 14.8996 2.40625L 14.8996 40.3527C 14.8996 41.5804 16.4062 42.4174 17.8013 42.7522C 20.5915 43.3661 21.2054 42.4732 21.875 41.5246L 21.9866 41.4129C 23.0469 39.9062 26.2277 36.6138 26.2835 36.558C 31.3058 31.5357 38.058 28.7455 45.2567 28.7455C 52.4554 28.7455 59.1518 31.5357 64.1741 36.558C 69.2522 41.6362 72.0424 48.3326 72.0424 55.4754C 72.0424 62.5625 69.2522 69.3147 64.2299 74.3371C 59.2634 79.3036 52.3438 82.1496 45.2009 82.1496C 40.346 82.1496 35.7143 80.8661 31.6964 78.4107L 31.6964 55.3638C 31.6964 52.2946 33.0357 48.9464 35.2679 46.4353C 37.8348 43.5335 41.3504 41.971 45.2009 41.971C 48.9397 41.971 52.3996 43.3661 54.9665 45.933C 57.5335 48.4442 58.9844 51.8482 58.9844 55.4754C 58.9844 63.1763 52.9018 69.2031 45.1451 69.2031C 43.6942 69.2031 40.9598 68.5335 40.8482 68.5335C 39.2857 68.0871 38.6161 70.2076 38.3929 70.933C 37.5558 73.6674 38.8393 74.2254 39.1183 74.3371C 41.5737 75.0625 43.192 75.2299 45.3683 75.2299C 56.25 75.2299 65.1786 66.3571 65.1786 55.4196C 65.1786 44.5938 56.3058 35.7768 45.3683 35.7768C 40.0112 35.7768 34.9888 37.8415 31.25 41.5246C 27.6228 45.0402 25.6696 49.7835 25.558 54.471L 25.558 54.5826C 25.558 55.1406 25.558 68.9799 25.558 73.5L 25.5022 73.5C 23.4933 71.2121 21.4286 67.7522 20.0893 64.1808C 19.5871 62.7857 18.3594 63.0089 16.7411 63.5112C 16.0714 63.7344 13.8393 64.404 14.3415 65.9665L 14.3973 65.9665C 14.3973 66.0781 14.8996 67.4732 15.2344 68.1987C 16.8527 72.1049 19.1964 75.5647 22.2098 78.5781C 25.2232 81.5915 28.7388 83.9353 32.6451 85.6094C 36.6629 87.3393 40.9598 88.1763 45.3683 88.1763C 49.7768 88.1763 54.0737 87.3393 58.0915 85.6094C 61.9978 83.9353 65.5134 81.5915 68.5268 78.5781C 71.5402 75.5647 73.8839 72.1049 75.558 68.1987C 77.2321 64.1808 78.125 59.8839 78.125 55.4754ZM 76.3951 23.0536C 72.6004 19.4263 68.4152 16.7478 63.2812 14.5714C 57.7009 12.2277 51.7299 11 45.6473 11C 39.7879 11 33.5379 12.1719 28.9621 14.1808C 28.4598 14.3482 28.1808 14.7388 28.0692 15.2969C 28.0134 15.7991 28.1808 16.5246 28.5156 17.4174C 28.7946 18.1429 29.5759 20.0402 31.0268 19.4821C 35.7143 17.6964 40.904 16.7478 45.6473 16.7478C 51.0045 16.7478 56.1942 17.7522 61.0491 19.8728C 64.9554 21.4911 68.5826 23.8348 72.6004 27.2946C 72.8795 27.5737 73.1585 27.6853 73.4933 27.6853C 74.2746 27.6853 75 26.904 75.6696 26.2344C 76.7299 25.0067 77.4554 24.0022 76.3951 23.0536Z"/>
</defs>
</svg>
