<svg width="100" height="87" viewBox="0 0 100 87" version="1.1" xmlns="http://www.w3.org/2000/svg" xmlns:xlink="http://www.w3.org/1999/xlink">
<title>&#239;&#134;&#182;</title>
<desc>Created using Figma</desc>
<g id="Canvas" transform="translate(119 -566)">
<g id="&#239;&#134;&#182;">
<use xlink:href="#path0_fill" transform="translate(-119 559)" fill="#FFFFFF"/>
</g>
</g>
<defs>
<path id="path0_fill" d="M 88.2812 32.7634C 88.2812 25.2299 82.1429 19.1473 74.6652 19.1473C 67.1317 19.1473 61.0491 25.2299 61.0491 32.7634C 61.0491 40.2969 67.1317 46.3795 74.6652 46.3795C 82.1429 46.3795 88.2812 40.2969 88.2812 32.7634ZM 45.3125 74.1696C 45.3125 81.9263 39.1183 88.1205 31.3616 88.1205C 26.0045 88.1205 21.3728 85.1071 19.029 80.6987C 21.317 81.5915 23.6049 82.5402 25.8929 83.433C 31.5848 85.7768 38.058 82.9866 40.346 77.2946C 42.6339 71.6027 39.8438 65.1853 34.1518 62.8973L 28.3482 60.5536C 29.3527 60.3304 30.3571 60.2188 31.3616 60.2188C 39.1183 60.2188 45.3125 66.4129 45.3125 74.1696ZM 91.6295 32.8192C 91.6295 42.25 83.9844 49.8393 74.6094 49.8393C 65.1786 49.8393 57.5335 42.25 57.5335 32.8192C 57.5335 23.4442 65.1786 15.7991 74.6094 15.7991C 83.9844 15.7991 91.6295 23.4442 91.6295 32.8192ZM 100 32.8192C 100 18.8125 88.6161 7.42857 74.6094 7.42857C 60.6585 7.42857 49.2746 18.7009 49.1629 32.596L 33.3147 55.308C 32.7009 55.2522 32.0312 55.1964 31.3616 55.1964C 27.846 55.1964 24.5536 56.1451 21.7076 57.875L 0 49.1138L 0 73.0536L 12.8348 78.1875C 14.6763 86.7254 22.3214 93.1429 31.3616 93.1429C 41.183 93.1429 49.3304 85.6094 50.2232 76.0112L 74.6094 58.2098C 88.6161 58.2098 100 46.8817 100 32.8192Z"/>
</defs>
</svg>
