<svg width="55" height="94" viewBox="0 0 55 94" version="1.1" xmlns="http://www.w3.org/2000/svg" xmlns:xlink="http://www.w3.org/1999/xlink">
<title>&#239;&#133;&#179;</title>
<desc>Created using Figma</desc>
<g id="Canvas" transform="translate(518 -459)">
<g id="&#239;&#133;&#179;">
<use xlink:href="#path0_fill" transform="translate(-521 459)" fill="#FFFFFF"/>
</g>
</g>
<defs>
<path id="path0_fill" d="M 52.6786 74.4487C 50.9487 75.2857 47.6562 76.0112 45.2009 76.067C 37.7232 76.2344 36.2723 70.8214 36.2723 66.9152L 36.2723 38.0089L 54.9107 38.0089L 54.9107 23.9464L 36.3281 23.9464L 36.3281 0.285714C 22.9353 0.285714 22.7121 0.285714 22.7121 0.285714C 22.4888 0.285714 22.0982 0.508929 22.0424 0.955357C 21.2612 8.20982 17.8571 20.933 3.79464 26.0112L 3.79464 38.0089L 13.1696 38.0089L 13.1696 68.3661C 13.1696 78.7455 20.8147 93.4777 41.0714 93.1429C 47.8795 93.0312 55.4688 90.1853 57.1429 87.6741L 52.6786 74.4487Z"/>
</defs>
</svg>
