<svg width="89" height="72" viewBox="0 0 89 72" version="1.1" xmlns="http://www.w3.org/2000/svg" xmlns:xlink="http://www.w3.org/1999/xlink">
<title>&#239;&#130;&#153;</title>
<desc>Created using Figma</desc>
<g id="Canvas" transform="translate(271 -793)">
<g id="&#239;&#130;&#153;">
<use xlink:href="#path0_fill" transform="translate(-273 779)" fill="#FFFFFF"/>
</g>
</g>
<defs>
<path id="path0_fill" d="M 90.4018 23.0536C 87.1652 24.4487 83.6496 25.4531 80.0223 25.8438C 83.7612 23.6116 86.6071 20.096 87.9464 15.9107C 84.4866 17.9754 80.5804 19.4821 76.5067 20.2634C 73.2143 16.7478 68.5268 14.5714 63.3371 14.5714C 53.3482 14.5714 45.3125 22.6629 45.3125 32.596C 45.3125 33.9911 45.4799 35.3862 45.7589 36.7254C 30.8036 35.9442 17.4665 28.8013 8.59375 17.8638C 7.03125 20.5424 6.13839 23.6116 6.13839 26.9598C 6.13839 33.2098 9.3192 38.7344 14.1741 41.971C 11.2165 41.8594 8.42634 41.0223 6.02679 39.683C 6.02679 39.7388 6.02679 39.8504 6.02679 39.9062C 6.02679 48.6674 12.221 55.9219 20.4799 57.596C 18.9732 57.9866 17.3549 58.2098 15.7366 58.2098C 14.5647 58.2098 13.4487 58.0982 12.3326 57.9308C 14.6205 65.0737 21.2612 70.2634 29.1853 70.4308C 22.9911 75.2857 15.2344 78.1317 6.80804 78.1317C 5.30134 78.1317 3.90625 78.0759 2.45536 77.9085C 10.4353 83.0424 19.9219 86 30.1339 86C 63.2812 86 81.4174 58.5446 81.4174 34.7165C 81.4174 33.9353 81.4174 33.154 81.3616 32.3728C 84.8772 29.8058 87.9464 26.625 90.4018 23.0536Z"/>
</defs>
</svg>
