<svg width="109" height="63" viewBox="0 0 109 63" version="1.1" xmlns="http://www.w3.org/2000/svg" xmlns:xlink="http://www.w3.org/1999/xlink">
<title>&#239;&#134;&#137;</title>
<desc>Created using Figma</desc>
<g id="Canvas" transform="translate(437 -469)">
<g id="&#239;&#134;&#137;">
<use xlink:href="#path0_fill" transform="translate(-436 445)" fill="#FFFFFF"/>
</g>
</g>
<defs>
<path id="path0_fill" d="M 106.975 29.3036C 106.975 29.3036 106.194 27.0714 101.339 27.6853L 85.2679 27.7969C 84.0402 27.6295 83.1473 28.1317 83.1473 28.1317C 83.1473 28.1317 82.1987 28.6339 81.7522 29.8616C 79.1295 36.6138 75.7812 42.4174 75.7812 42.4174C 68.6384 54.5826 65.7366 55.2522 64.5647 54.471C 61.8304 52.7411 62.5558 47.4397 62.5558 43.6451C 62.5558 31.8147 64.3415 26.904 59.0402 25.6205C 57.3103 25.2299 56.0268 24.9509 51.5067 24.8951C 45.7589 24.8393 40.904 24.8951 38.1696 26.2344C 36.3281 27.1272 34.933 29.1362 35.7701 29.2478C 36.8304 29.4152 39.2299 29.9174 40.5134 31.6473C 40.5134 31.6473 41.9085 33.9353 42.1317 38.9576C 42.7455 52.8527 39.8996 54.5826 39.8996 54.5826C 37.7232 55.7545 33.9286 53.8013 28.3482 42.3058C 28.3482 42.3058 25.1116 36.6138 22.6004 30.3638C 22.154 29.192 21.2612 28.5781 21.2612 28.5781C 21.2612 28.5781 20.2567 27.7969 18.8058 27.5737L 3.51562 27.6853C 1.17188 27.6853 0.334821 28.7455 0.334821 28.7455C 0.334821 28.7455 -0.502232 29.6384 0.279018 31.4799C 12.221 59.5491 25.8371 73.6116 25.8371 73.6116C 25.8371 73.6116 38.2812 86.6138 52.3996 85.721L 58.817 85.721C 60.7701 85.5536 61.7746 84.4933 61.7746 84.4933C 61.7746 84.4933 62.6674 83.4888 62.6116 81.6473C 62.5 73.0536 66.5179 71.7701 66.5179 71.7701C 70.4241 70.5424 75.4464 80.0848 80.8036 83.7679C 80.8036 83.7679 84.8772 86.558 87.9464 85.9442L 102.232 85.721C 109.766 85.6652 106.194 79.4152 106.194 79.4152C 105.915 78.9129 104.129 75.0625 95.5357 67.0826C 86.6071 58.7679 87.779 60.1071 98.6049 45.7098C 105.19 36.9487 107.812 31.5915 106.975 29.3036Z"/>
</defs>
</svg>
