<?xml version="1.0" encoding="utf-8"?>
<!-- Generator: Adobe Illustrator 19.0.0, SVG Export Plug-In . SVG Version: 6.00 Build 0)  -->
<svg version="1.2" baseProfile="tiny" id="Layer_1" xmlns="http://www.w3.org/2000/svg" xmlns:xlink="http://www.w3.org/1999/xlink"
	 x="0px" y="0px" width="216.5px" height="185px" viewBox="0 0 216.5 185" xml:space="preserve">
<g id="XMLID_4603_">
	<g id="XMLID_2268_">
		<ellipse id="XMLID_2274_" fill="#C8C8C8" cx="112.6" cy="183" rx="38.6" ry="2"/>
		<g id="XMLID_2269_">
			<g id="XMLID_2272_">
				<path id="XMLID_2273_" fill="#DDEDE1" d="M140.5,117.1h-11.4V95.1c0-9-7.4-16.4-16.4-16.4S96.4,86,96.4,95.1v21.6H85V95.1
					c0-15.3,12.4-27.8,27.8-27.8s27.8,12.4,27.8,27.8V117.1z"/>
			</g>
			<path id="XMLID_2271_" fill="#99D0A7" d="M142.7,174H82.9c-5.7,0-10.4-4.7-10.4-10.4v-47c0-5.7,4.7-10.4,10.4-10.4h59.7
				c5.7,0,10.4,4.7,10.4,10.4v47C153.1,169.3,148.4,174,142.7,174z"/>
			<path id="XMLID_2270_" fill="#FFFFFF" d="M119.9,134.4c0-3.9-3.2-7.1-7.1-7.1s-7.1,3.2-7.1,7.1c0,2.4,1.2,4.5,3.2,5.9v10
				c0,1.5,1.2,2.7,2.7,2.7h2.4c1.5,0,2.7-1.2,2.7-2.7v-10C118.7,138.9,119.9,136.8,119.9,134.4z"/>
		</g>
	</g>
	<g id="XMLID_1181_">
		<g id="XMLID_2263_">
			<g id="XMLID_2265_">
				<g id="XMLID_2266_">
					<path id="XMLID_2267_" fill="#40AAE0" d="M49.2,99.4c-2.6,0-5-0.8-7.1-2.3c-4.3-3.1-6-8.6-4.4-13.6c1.6-5,6.3-8.4,11.5-8.4
						s9.9,3.4,11.5,8.4S60.4,94,56.1,97.1C54.2,98.7,51.7,99.4,49.2,99.4z"/>
				</g>
			</g>
			<path id="XMLID_2264_" fill="#FFFFFF" d="M55.9,83.8c-0.4,0.2-0.9,0.3-1.4,0.4c0.5-0.3,0.9-0.8,1.1-1.4c-0.5,0.3-1,0.5-1.6,0.6
				c-0.4-0.5-1.1-0.8-1.8-0.8c-1.4,0-2.5,1.1-2.5,2.5c0,0.2,0,0.4,0.1,0.6c-2.1-0.1-3.9-1.1-5.2-2.6c-0.3,0.3-0.3,0.8-0.3,1.3
				c0,0.8,0.4,1.7,1.1,2.1c-0.4,0-0.8-0.2-1.2-0.3l0,0c0,1.3,0.8,2.3,2,2.4c-0.3,0.1-0.4,0.1-0.7,0.1c-0.2,0-0.3,0-0.5-0.1
				c0.3,1,1.3,1.8,2.3,1.8c-0.8,0.7-1.9,1.1-3.1,1.1c-0.2,0-0.4,0-0.6,0c1.1,0.8,2.4,1.1,3.9,1.1c4.6,0,7.1-3.9,7.1-7.1
				c0-0.1,0-0.3,0-0.3C55.1,84.8,55.6,84.3,55.9,83.8z"/>
		</g>
		<g id="XMLID_2254_">
			<g id="XMLID_2260_">
				<g id="XMLID_2261_">
					<path id="XMLID_2262_" fill="#1085C7" d="M26,62.1c-3,0-5.8-1-8.2-2.7c-4.9-3.6-7-9.9-5.1-15.7c1.8-5.8,7.3-9.7,13.3-9.7
						s11.4,3.9,13.3,9.7S38.9,55.8,34,59.4C31.8,61.2,29,62.1,26,62.1z"/>
				</g>
			</g>
			<g id="XMLID_2255_">
				<path id="XMLID_2257_" fill="#FFFFFF" d="M20,45.1h2.7v8.6H20V45.1z M21.2,40.9c0.9,0,1.5,0.7,1.5,1.5c0,0.9-0.7,1.5-1.5,1.5
					c-0.9,0-1.5-0.7-1.5-1.5C19.7,41.6,20.4,40.9,21.2,40.9"/>
				<path id="XMLID_2256_" fill="#FFFFFF" d="M24.2,45.1h2.5v1.2l0,0c0.4-0.7,1.3-1.4,2.5-1.4c2.7,0,3.2,1.7,3.2,4.1v4.7h-2.7v-4.2
					c0-1,0-2.2-1.4-2.2c-1.4,0-1.6,1.1-1.6,2.2v4.2H24v-8.6H24.2z"/>
			</g>
		</g>
		<g id="XMLID_2247_">
			<path id="XMLID_2253_" fill="#F05649" d="M80.1,56c8.1,0,14.7-6.6,14.7-14.7s-6.6-14.7-14.7-14.7c-8.1,0-14.7,6.6-14.7,14.7
				S72,56,80.1,56"/>
			<path id="XMLID_2248_" fill="#FFFFFF" d="M78.3,48.5c-1.7,0-3-1.1-3-2.5s1.5-2.4,3.3-2.4c0.4,0,0.8,0.1,1.1,0.2
				c0.9,0.6,1.6,1,1.8,1.7c0,0.1,0.1,0.3,0.1,0.5C81.6,47.5,80.8,48.5,78.3,48.5 M78.8,40.7c-1.1,0-2.3-1.3-2.5-2.9
				c-0.2-1.5,0.6-2.7,1.7-2.7s2.3,1.2,2.5,2.8C80.8,39.6,79.9,40.8,78.8,40.7 M81.2,42.9c-0.4-0.3-1.2-1-1.2-1.4
				c0-0.5,0.1-0.7,0.8-1.3c0.7-0.6,1.3-1.4,1.3-2.4c0-1.1-0.5-2.3-1.4-2.7h1.4l1-0.7h-4.5c-2.1,0-4,1.5-4,3.3c0,1.8,1.4,3.3,3.5,3.3
				c0.1,0,0.3,0,0.4,0c-0.1,0.3-0.2,0.5-0.2,0.8c0,0.5,0.3,0.9,0.6,1.2c-0.3,0-0.5,0-0.8,0c-2.6,0-4.5,1.6-4.5,3.3
				c0,1.6,2.2,2.7,4.6,2.7c2.9,0,4.5-1.6,4.5-3.3C82.8,44.6,82.4,43.9,81.2,42.9 M87.8,40.9h-1.7V39h-1.4v1.7h-1.7v1.4h1.7V44h1.4
				v-1.7h1.7V40.9z"/>
		</g>
		<g id="XMLID_2242_">
			<g id="XMLID_2244_">
				<g id="XMLID_2245_">
					<path id="XMLID_2246_" fill="#4E76B9" d="M130.3,36.3c-3.9,0-7.5-1.3-10.6-3.5c-6.4-4.6-9-12.8-6.6-20.3
						C115.4,5,122.4,0,130.2,0c7.9,0,14.8,5,17.1,12.5c2.4,7.5-0.3,15.6-6.6,20.3C137.8,35,134.2,36.3,130.3,36.3z"/>
				</g>
			</g>
			<path id="XMLID_2243_" fill="#FFFFFF" d="M132.9,12.4c0.6,0,1.3,0,1.8,0c0.1,0,0.1,0,0.3,0V9.3c-0.4,0-0.6-0.1-1-0.1
				c-0.6,0-1.3,0-1.9,0c-0.9,0-1.9,0.3-2.6,0.8c-0.9,0.6-1.4,1.5-1.5,2.6c-0.1,0.4-0.1,0.9-0.1,1.4c0,0.8,0,1.4,0,2.1v0.3h-3v3.5h3
				v8.8h3.6v-8.6h2.9c0.1-1.1,0.3-2.3,0.5-3.5c-0.3,0-0.5,0-0.6,0c-0.9,0-2.8,0-2.8,0s0-1.8,0-2.5C131.5,12.8,132.2,12.4,132.9,12.4
				z"/>
		</g>
		<g id="XMLID_2237_">
			<g id="XMLID_2239_">
				<g id="XMLID_2240_">
					<path id="XMLID_2241_" fill="#4D75A3" d="M185.6,51.7c-1.8,0-3.4-0.6-4.8-1.6c-2.9-2.1-4.1-5.8-3-9.2s4.3-5.7,7.8-5.7
						c3.6,0,6.7,2.3,7.8,5.7s-0.1,7.1-3,9.2C189,51.2,187.3,51.7,185.6,51.7z"/>
				</g>
			</g>
			<path id="XMLID_2238_" fill="#FFFFFF" d="M185.3,46.7h0.6c0,0,0.2,0,0.2-0.1c0.1-0.1,0.1-0.2,0.1-0.2s0-0.7,0.3-0.9
				c0.3-0.1,0.8,0.7,1.3,1c0.3,0.2,0.6,0.2,0.6,0.2h1.3c0,0,0.6-0.1,0.3-0.6c0-0.1-0.2-0.4-0.9-1.1c-0.8-0.7-0.7-0.6,0.3-1.8
				c0.6-0.7,0.8-1.2,0.7-1.4c-0.1-0.2-0.5-0.1-0.5-0.1h-1.4c0,0-0.1,0-0.2,0.1s-0.1,0.2-0.1,0.2s-0.2,0.6-0.5,1.1
				c-0.6,1-0.9,1.1-1,1c-0.2-0.2-0.2-0.6-0.2-0.9c0-1,0.2-1.4-0.3-1.5c-0.2-0.1-0.3-0.1-0.6-0.1c-0.5,0-0.9,0-1.1,0.1
				c-0.2,0.1-0.3,0.2-0.2,0.3c0.1,0,0.3,0.1,0.4,0.2c0.1,0.2,0.1,0.6,0.1,0.6s0.1,1.2-0.2,1.4c-0.2,0.1-0.5-0.1-1-1.1
				c-0.3-0.5-0.5-1-0.5-1s-0.1-0.1-0.1-0.2c-0.1-0.1-0.2-0.1-0.2-0.1h-1.3c0,0-0.2,0-0.3,0.1c-0.1,0.1,0,0.2,0,0.2s1,2.4,2.2,3.6
				C184,46.7,185.3,46.7,185.3,46.7L185.3,46.7z"/>
		</g>
		<circle id="XMLID_2236_" fill="#E1E1E1" cx="159.4" cy="31.5" r="3.2"/>
		<circle id="XMLID_2235_" fill="#E1E1E1" cx="211.9" cy="58.2" r="2.3"/>
		<circle id="XMLID_2234_" fill="#E1E1E1" cx="26.4" cy="77.9" r="2.6"/>
		<circle id="XMLID_2233_" fill="#E1E1E1" cx="68" cy="69.5" r="1.8"/>
		<circle id="XMLID_2232_" fill="#E1E1E1" cx="75.8" cy="15.8" r="2.4"/>
		<circle id="XMLID_2231_" fill="#E1E1E1" cx="203" cy="52.9" r="1.5"/>
		<circle id="XMLID_2230_" fill="#E1E1E1" cx="132.9" cy="48.1" r="0.9"/>
		<circle id="XMLID_2229_" fill="#E1E1E1" cx="27.3" cy="22.5" r="0.9"/>
		<circle id="XMLID_2228_" fill="#E1E1E1" cx="155.5" cy="16.3" r="0.9"/>
		<circle id="XMLID_2227_" fill="#E1E1E1" cx="171.9" cy="36.9" r="0.9"/>
		<circle id="XMLID_2226_" fill="#E1E1E1" cx="95" cy="21.5" r="0.9"/>
		<circle id="XMLID_2225_" fill="#E1E1E1" cx="50.6" cy="50.8" r="0.9"/>
		<circle id="XMLID_2224_" fill="#E1E1E1" cx="161" cy="81.6" r="1.7"/>
		<circle id="XMLID_2223_" fill="#E1E1E1" cx="110.7" cy="44.1" r="1.8"/>
		<g id="XMLID_2219_">
			<circle id="XMLID_2222_" fill="#512D8B" cx="200.6" cy="80.3" r="16"/>
			<path id="XMLID_2220_" fill="#FFFFFF" d="M208,78l-1.7,0.4c-0.3,0.1-1,0.6-2.2,1.6c-1.3,1-1.9,1.7-2,2l-0.1,0.9l0,0.5l0.1,1.4
				l2.3,0l0,0.7h-3.7l-3.3,0l0.1-0.7l1.1,0c0.5,0,0.9-0.1,1-0.2c0.1-0.1,0.1-0.5,0.1-1.3v-0.5l0-0.9c-0.1-0.2-0.7-1-1.8-2.4
				c-1.2-1.4-1.9-2.3-2.3-2.6l-2.1-0.3V76c0.1-0.1,1.3-0.1,3.4,0c1.5,0,2.7,0,3.7,0l-0.1,0.5l-2.2,0.2c0.7,1,1.8,2.4,3.2,4.2
				c1.9-1.4,2.9-2.3,2.9-2.7l-1.9-0.3l-0.1-0.7h3.2l3,0L208,78L208,78z"/>
		</g>
		<g id="XMLID_2186_">
			<circle id="XMLID_2218_" fill="#EFBF4A" cx="8.7" cy="78.7" r="8.7"/>
			<g id="XMLID_2187_">
				<path id="XMLID_130_" fill="#FFFFFF" d="M7.3,77.8c-0.6,0.3-1.1,0.8-1.1,1.7c0,1.1,0.7,1.6,1.5,1.6c0.7,0,1.1-0.2,1.7-0.7
					c0.2,0.3,0.2,0.4,0.6,0.7c0.1,0,0.2,0,0.2,0c0.2-0.2,0.6-0.5,0.8-0.7c0.1-0.1,0.1-0.2,0-0.3c-0.2-0.3-0.4-0.5-0.4-0.9v-1.6
					c0-0.7,0-1.3-0.4-1.7c-0.4-0.4-1-0.5-1.5-0.5c-1,0-2.1,0.4-2.3,1.6c0,0.1,0.1,0.2,0.1,0.2l1,0.1c0.1,0,0.2-0.1,0.2-0.2
					c0.1-0.4,0.4-0.6,0.8-0.6c0.2,0,0.4,0.1,0.6,0.3c0.1,0.2,0.1,0.5,0.1,0.7v0.1C8.6,77.5,7.9,77.6,7.3,77.8z M9.2,78.2v0.2
					c0,0.4,0,0.7-0.2,1.1C8.9,79.8,8.6,80,8.3,80c-0.4,0-0.6-0.3-0.6-0.7C7.7,78.4,8.5,78.2,9.2,78.2z M12,81.4
					c-1,0.4-2.2,0.7-3.2,0.7c-1.5,0-3-0.4-4.2-1.1c-0.1-0.1-0.2,0-0.1,0.1c1.1,1,2.6,1.6,4.2,1.6c1.2,0,2.5-0.4,3.5-1.1
					C12.3,81.5,12.2,81.3,12,81.4z M12.9,80.9c-0.1-0.1-1-0.2-1.5,0.1c-0.1,0-0.1,0.1,0,0.1c0.3,0,1-0.1,1.1,0
					c0.1,0.2-0.1,0.8-0.3,1.1c0,0.1,0,0.1,0.1,0.1C12.9,81.9,13.1,81,12.9,80.9z"/>
			</g>
		</g>
		<g id="XMLID_2182_">
			<circle id="XMLID_2185_" fill="#D22028" cx="154.6" cy="58.4" r="12.8"/>
			<path id="XMLID_2183_" fill="#FFFFFF" d="M155.7,60.2c-0.1-0.2-0.3-0.7-0.5-1.3c-0.1-0.2-0.2-0.5-0.3-0.7l-0.3-0.5
				c-0.5-1.3-1.6-2.2-2.9-2.2c-1.7,0-3.1,1.4-3.1,3.1c0,1.7,1.4,3.1,3.1,3.1c1.2,0,2.2-0.7,2.7-1.7l0.5,1.3c-0.8,0.9-2,1.5-3.3,1.5
				c-2.3,0-4.3-1.9-4.3-4.3c0-2.4,1.9-4.3,4.3-4.3c1.7,0,3.1,1,3.8,2.4l0,0l0,0.1c0.1,0.2,0.2,0.4,0.2,0.6l1,2.5
				c0,0,0.7,1.9,2.1,1.9c1.4,0,1.7-0.9,1.7-1.5c0-0.5-0.3-0.9-1-1.2c-0.7-0.3-2-0.8-2-0.8s-1-0.4-1-1.7c0-1.3,0.9-2.2,2.2-2.2
				s2,1.2,2,1.2l-0.8,0.5c0,0-0.5-0.7-1.3-0.7c-0.8,0-1.2,0.7-1.2,1.1c0,0.4,0.2,0.9,0.8,1c0.6,0.2,1.9,0.4,2.7,1.2
				c0.5,0.5,0.5,1.4,0.5,1.5c0,0.2-0.2,2.5-2.9,2.5C156.4,63,155.7,60.2,155.7,60.2"/>
		</g>
		<g id="XMLID_1955_">
			<circle id="XMLID_2197_" fill="#C22261" cx="50" cy="16.4" r="9.2"/>
			<path id="XMLID_1956_" fill="#FFFFFF" d="M50,20.6c-2.3,0-4.2-1.9-4.2-4.2c0-2.3,1.9-4.2,4.2-4.2c2.3,0,4.2,1.9,4.2,4.2
				C54.2,18.7,52.3,20.6,50,20.6z M53.5,17c-0.1,0-1.1-0.3-2.2-0.2c0.5,1.3,0.7,2.3,0.7,2.5C52.8,18.9,53.4,18,53.5,17z M51.4,19.7
				c-0.1-0.3-0.3-1.4-0.8-2.7h0c-2,0.7-2.7,2.1-2.8,2.2c0.6,0.5,1.4,0.8,2.2,0.8C50.5,20,51,19.9,51.4,19.7z M47.3,18.8
				c0.1-0.1,1.1-1.8,2.9-2.4c0.1,0,0.1,0,0.1-0.1c-0.1-0.2-0.2-0.4-0.3-0.6c-1.8,0.5-3.5,0.5-3.7,0.5c0,0,0,0.1,0,0.1
				C46.4,17.3,46.8,18.2,47.3,18.8z M46.5,15.7c0.2,0,1.6,0,3.3-0.4c-0.6-1.1-1.2-1.9-1.3-2.1C47.5,13.7,46.7,14.6,46.5,15.7z
				 M49.2,13c0.1,0.1,0.8,1,1.3,2.1c1.3-0.5,1.8-1.2,1.9-1.3c-0.6-0.6-1.5-0.9-2.4-0.9C49.7,12.9,49.4,12.9,49.2,13z M52.8,14.2
				c-0.1,0.1-0.7,0.9-2,1.4c0.1,0.2,0.2,0.4,0.2,0.5c0,0.1,0.1,0.1,0.1,0.2c1.2-0.2,2.4,0.1,2.5,0.1C53.6,15.6,53.3,14.8,52.8,14.2z
				"/>
		</g>
	</g>
</g>
</svg>
