<?xml version="1.0" encoding="utf-8"?>
<!-- Generator: Adobe Illustrator 19.0.0, SVG Export Plug-In . SVG Version: 6.00 Build 0)  -->
<svg version="1.2" baseProfile="tiny" id="Layer_1" xmlns="http://www.w3.org/2000/svg" xmlns:xlink="http://www.w3.org/1999/xlink"
	 x="0px" y="0px" width="185px" height="185px" viewBox="0 0 185 185" xml:space="preserve">
<g id="XMLID_144_">
	<g id="XMLID_492_">
		<path id="XMLID_491_" fill="#F0C14B" d="M9.4,99.2l5.3,2.8c0.3,0.2,0.7-0.1,0.7-0.5l-1-5.9l4.3-4.2c0.3-0.3,0.1-0.7-0.3-0.8
			l-6-0.9l-2.7-5.4C9.7,84,9.2,84,9,84.3l-2.7,5.4l-6,0.9c-0.4,0.1-0.5,0.5-0.3,0.8l4.3,4.2l-1,5.9c-0.1,0.4,0.3,0.7,0.7,0.5
			L9.4,99.2z"/>
		<path id="XMLID_493_" fill="#F0C14B" d="M23.9,139.8l6-0.2c0.4,0,0.6-0.5,0.3-0.8l-3.8-4.6l1.6-5.8c0.1-0.4-0.3-0.7-0.6-0.6
			l-5.6,2.2l-5-3.3c-0.3-0.2-0.7,0-0.7,0.4l0.4,6l-4.7,3.7c-0.3,0.2-0.2,0.7,0.2,0.8l5.8,1.5l2.1,5.6c0.1,0.4,0.6,0.4,0.8,0.1
			L23.9,139.8z"/>
		<path id="XMLID_494_" fill="#F0C14B" d="M56.8,167.8l5.1-3.2c0.3-0.2,0.3-0.7-0.1-0.8l-5.6-2.1l-1.5-5.8c-0.1-0.4-0.6-0.5-0.8-0.2
			l-3.7,4.7l-6-0.4c-0.4,0-0.6,0.4-0.4,0.7l3.3,5l-2.2,5.6c-0.1,0.4,0.2,0.7,0.6,0.6l5.8-1.6l4.6,3.8c0.3,0.2,0.7,0,0.8-0.3
			L56.8,167.8z"/>
		<path id="XMLID_495_" fill="#F0C14B" d="M99.2,175.6l2.8-5.3c0.2-0.3-0.1-0.7-0.5-0.7l-5.9,1l-4.2-4.3c-0.3-0.3-0.7-0.1-0.8,0.3
			l-0.9,6l-5.4,2.7c-0.3,0.2-0.3,0.7,0,0.8l5.4,2.7l0.9,6c0.1,0.4,0.5,0.5,0.8,0.3l4.2-4.3l5.9,1c0.4,0.1,0.7-0.3,0.5-0.7
			L99.2,175.6z"/>
		<path id="XMLID_496_" fill="#F0C14B" d="M139.8,161.1l-0.2-6c0-0.4-0.5-0.6-0.8-0.3l-4.6,3.8l-5.8-1.6c-0.4-0.1-0.7,0.3-0.6,0.6
			l2.2,5.6l-3.3,5c-0.2,0.3,0,0.7,0.4,0.7l6-0.4l3.7,4.7c0.2,0.3,0.7,0.2,0.8-0.2l1.5-5.8l5.6-2.1c0.4-0.1,0.4-0.6,0.1-0.8
			L139.8,161.1z"/>
		<path id="XMLID_497_" fill="#F0C14B" d="M167.8,128.2l-3.2-5.1c-0.2-0.3-0.7-0.3-0.8,0.1l-2.1,5.6l-5.8,1.5
			c-0.4,0.1-0.5,0.6-0.2,0.8l4.7,3.7l-0.4,6c0,0.4,0.4,0.6,0.7,0.4l5-3.3l5.6,2.2c0.4,0.1,0.7-0.2,0.6-0.6l-1.6-5.8l3.8-4.6
			c0.2-0.3,0-0.7-0.3-0.8L167.8,128.2z"/>
		<path id="XMLID_498_" fill="#F0C14B" d="M175.6,85.8l-5.3-2.8c-0.3-0.2-0.7,0.1-0.7,0.5l1,5.9l-4.3,4.2c-0.3,0.3-0.1,0.7,0.3,0.8
			l6,0.9l2.7,5.4c0.2,0.3,0.7,0.3,0.8,0l2.7-5.4l6-0.9c0.4-0.1,0.5-0.5,0.3-0.8l-4.3-4.2l1-5.9c0.1-0.4-0.3-0.7-0.7-0.5L175.6,85.8z
			"/>
		<path id="XMLID_499_" fill="#F0C14B" d="M161.1,45.2l-6,0.2c-0.4,0-0.6,0.5-0.3,0.8l3.8,4.6l-1.6,5.8c-0.1,0.4,0.3,0.7,0.6,0.6
			l5.6-2.2l5,3.3c0.3,0.2,0.7,0,0.7-0.4l-0.4-6l4.7-3.7c0.3-0.2,0.2-0.7-0.2-0.8l-5.8-1.5l-2.1-5.6c-0.1-0.4-0.6-0.4-0.8-0.1
			L161.1,45.2z"/>
		<path id="XMLID_500_" fill="#F0C14B" d="M128.2,17.2l-5.1,3.2c-0.3,0.2-0.3,0.7,0.1,0.8l5.6,2.1l1.5,5.8c0.1,0.4,0.6,0.5,0.8,0.2
			l3.7-4.7l6,0.4c0.4,0,0.6-0.4,0.4-0.7l-3.3-5l2.2-5.6c0.1-0.4-0.2-0.7-0.6-0.6l-5.8,1.6l-4.6-3.8c-0.3-0.2-0.7,0-0.8,0.3
			L128.2,17.2z"/>
		<path id="XMLID_501_" fill="#F0C14B" d="M85.8,9.4L83,14.8c-0.2,0.3,0.1,0.7,0.5,0.7l5.9-1l4.2,4.3c0.3,0.3,0.7,0.1,0.8-0.3l0.9-6
			l5.4-2.7c0.3-0.2,0.3-0.7,0-0.8l-5.4-2.7l-0.9-6c-0.1-0.4-0.5-0.5-0.8-0.3l-4.2,4.3l-5.9-1c-0.4-0.1-0.7,0.3-0.5,0.7L85.8,9.4z"/>
		<path id="XMLID_502_" fill="#F0C14B" d="M45.2,23.9l0.2,6c0,0.4,0.5,0.6,0.8,0.3l4.6-3.8l5.8,1.6c0.4,0.1,0.7-0.3,0.6-0.6
			l-2.2-5.6l3.3-5c0.2-0.3,0-0.7-0.4-0.7l-6,0.4l-3.7-4.7c-0.2-0.3-0.7-0.2-0.8,0.2l-1.5,5.8l-5.6,2.1c-0.4,0.1-0.4,0.6-0.1,0.8
			L45.2,23.9z"/>
		<path id="XMLID_503_" fill="#F0C14B" d="M17.2,56.8l3.2,5.1c0.2,0.3,0.7,0.3,0.8-0.1l2.1-5.6l5.8-1.5c0.4-0.1,0.5-0.6,0.2-0.8
			l-4.7-3.7l0.4-6c0-0.4-0.4-0.6-0.7-0.4l-5,3.3l-5.6-2.2c-0.4-0.1-0.7,0.2-0.6,0.6l1.6,5.8l-3.8,4.6c-0.2,0.3,0,0.7,0.3,0.8
			L17.2,56.8z"/>
	</g>
	<g id="XMLID_161_">
		<path id="XMLID_164_" fill="#DFEFE3" d="M93.3,51h-0.7c-10.4,0-19.4,9.7-19.4,20.1V84l9,0.3v-13c0-5.6,4.8-12.3,10.4-12.3h0.7
			c5.6,0,10.8,6.5,10.8,12.1V81h8v-9.9C112.1,60.8,103.6,51,93.3,51z"/>
		<path id="XMLID_163_" fill="#9AD1A8" d="M114.5,129.1H71.1c-4.1,0-7.5-3.4-7.5-7.5V87.5c0-4.1,3.4-7.5,7.5-7.5h43.3
			c4.1,0,7.5,3.4,7.5,7.5v34.1C122,125.7,118.6,129.1,114.5,129.1z"/>
		<path id="XMLID_162_" fill="#FFFFFF" d="M97.9,100.4c0-2.8-2.3-5.1-5.1-5.1c-2.8,0-5.1,2.3-5.1,5.1c0,1.7,0.9,3.3,2.3,4.3v7.3
			c0,1.1,0.9,1.9,1.9,1.9h1.7c1.1,0,1.9-0.9,1.9-1.9v-7.3C97.1,103.7,97.9,102.1,97.9,100.4z"/>
	</g>
</g>
</svg>
