<?xml version="1.0" encoding="utf-8"?>
<!-- Generator: Adobe Illustrator 19.0.0, SVG Export Plug-In . SVG Version: 6.00 Build 0)  -->
<svg version="1.2" baseProfile="tiny" id="Layer_1" xmlns="http://www.w3.org/2000/svg" xmlns:xlink="http://www.w3.org/1999/xlink"
	 x="0px" y="0px" width="174px" height="185px" viewBox="0 0 174 185" xml:space="preserve">
<g id="XMLID_2270_">
	<g id="XMLID_2621_">
		<g id="XMLID_2623_">
			<path id="XMLID_2625_" fill="#8DD4DF" d="M43.5,6v37.5H6V6H43.5 M44.4,0H5.1C2.2,0,0,2.2,0,5.1v39.4c0,2.8,2.2,5.1,5.1,5.1h39.4
				c2.8,0,5.1-2.3,5.1-5.1V5.1C49.5,2.2,47.2,0,44.4,0L44.4,0z"/>
			<path id="XMLID_2624_" fill="#8DD4DF" d="M37,17.1c-1.4-1.6-4-1.8-5.7-0.3l-9.6,8.5l-3.4-3.2c-1.6-1.6-4.4-1.3-5.7,0.1
				c-0.8,0.8-1.2,1.8-1.1,2.9c0,1.1,0.5,2.1,1.3,2.9l6.7,6.3c0.6,0.6,1.3,0.9,2.1,0.9c0.5,0,1-0.1,1.5-0.4l13.6-12.1
				c0.7-0.7,1.1-1.6,1.2-2.6C38.1,19,37.7,18,37,17.1z"/>
		</g>
		<path id="XMLID_2622_" fill="#999999" d="M170.3,28.7H70.6c-2,0-3.7-1.7-3.7-3.7v-0.5c0-2,1.7-3.7,3.7-3.7h99.7
			c2,0,3.7,1.7,3.7,3.7V25C174,27,172.3,28.7,170.3,28.7z"/>
	</g>
	<g id="XMLID_2613_">
		<g id="XMLID_2615_">
			<path id="XMLID_2616_" fill="#8DD4DF" d="M43.5,73.8v37.5H6V73.8H43.5 M44.4,67.8H5.1C2.2,67.8,0,70,0,72.8v39.4
				c0,2.8,2.2,5.1,5.1,5.1h39.4c2.8,0,5.1-2.3,5.1-5.1V72.8C49.5,70,47.2,67.8,44.4,67.8L44.4,67.8z"/>
		</g>
		<path id="XMLID_2614_" fill="#999999" d="M170.3,96.4H70.6c-2,0-3.7-1.7-3.7-3.7v-0.5c0-2,1.7-3.7,3.7-3.7h99.7
			c2,0,3.7,1.7,3.7,3.7v0.5C174,94.8,172.3,96.4,170.3,96.4z"/>
	</g>
	<g id="XMLID_2271_">
		<g id="XMLID_2273_">
			<path id="XMLID_2277_" fill="#8DD4DF" d="M43.5,141.5V179H6v-37.5H43.5 M44.4,135.5H5.1c-2.8,0-5.1,2.2-5.1,5.1v39.4
				c0,2.8,2.2,5.1,5.1,5.1h39.4c2.8,0,5.1-2.3,5.1-5.1v-39.4C49.5,137.8,47.2,135.5,44.4,135.5L44.4,135.5z"/>
			<path id="XMLID_2275_" fill="#8DD4DF" d="M37,152.7c-1.4-1.6-4-1.8-5.7-0.3l-9.6,8.5l-3.4-3.2c-1.6-1.6-4.4-1.3-5.7,0.1
				c-0.8,0.8-1.2,1.8-1.1,2.9c0,1.1,0.5,2.1,1.3,2.9l6.7,6.3c0.6,0.6,1.3,0.9,2.1,0.9c0.5,0,1-0.1,1.5-0.4l13.6-12.1
				c0.7-0.7,1.1-1.6,1.2-2.6C38.1,154.6,37.7,153.5,37,152.7z"/>
		</g>
		<path id="XMLID_2272_" fill="#999999" d="M170.3,164.2H70.6c-2,0-3.7-1.7-3.7-3.7V160c0-2,1.7-3.7,3.7-3.7h99.7
			c2,0,3.7,1.7,3.7,3.7v0.5C174,162.5,172.3,164.2,170.3,164.2z"/>
	</g>
</g>
</svg>
